<svg width="78" height="23" viewBox="0 0 78 23" fill="none" xmlns="http://www.w3.org/2000/svg">
<g clip-path="url(#clip0_593_718)">
<mask id="mask0_593_718" style="mask-type:luminance" maskUnits="userSpaceOnUse" x="0" y="0" width="78" height="22">
<path d="M77.8924 0.101562H0.0996094V21.7297H77.8924V0.101562Z" fill="white"/>
</mask>
<g mask="url(#mask0_593_718)">
<path d="M57.4721 16.7644C58.8806 16.7644 60.0224 15.6444 60.0224 14.263C60.0224 12.8816 58.8806 11.7617 57.4721 11.7617C56.0636 11.7617 54.9219 12.8816 54.9219 14.263C54.9219 15.6444 56.0636 16.7644 57.4721 16.7644Z" fill="#3B5068"/>
<path d="M20.2488 0H23.6235V21.346H20.2488V0ZM35.9147 14.7635C35.9147 18.0736 33.1535 18.3368 32.3098 18.3368C30.2006 18.3368 29.8938 16.3997 29.8938 15.2337V6.97741H26.4998V15.2149C26.4806 17.2648 27.075 18.9575 28.2256 20.0859C29.2704 20.9995 30.6016 21.5364 31.9994 21.6082C33.3972 21.6801 34.7783 21.2824 35.9147 20.4809V21.346H39.3087V6.97741H35.9147V14.7635ZM46.6335 2.14401H43.2395V6.97741H40.881V10.1182H43.2395V21.346H46.6335V10.1182H49.4139V6.97741H46.6335V2.14401ZM60.4011 17.2648C59.6342 17.9419 58.6179 18.3181 57.5058 18.3181C56.9407 18.3338 56.3784 18.2359 55.8535 18.0304C55.3285 17.8249 54.852 17.5163 54.4532 17.1234C54.0544 16.7305 53.7419 16.2617 53.5348 15.746C53.3276 15.2301 53.2303 14.6782 53.2489 14.1241C53.2489 11.698 54.9938 10.0054 57.5058 10.0054C58.5987 10.0054 59.6342 10.3627 60.4203 11.0398L60.9573 11.4911L63.3349 9.15904L62.7405 8.63246C61.3006 7.3728 59.4351 6.68248 57.5058 6.69531C53.0955 6.69531 49.8933 9.81726 49.8933 14.1053C49.8698 15.0938 50.0505 16.0768 50.4242 16.9951C50.798 17.9135 51.3573 18.7482 52.0683 19.4492C52.7793 20.1501 53.6276 20.7028 54.5621 21.074C55.4964 21.4452 56.4977 21.6274 57.5058 21.6094C59.5191 21.6094 61.3983 20.9134 62.7788 19.6534L63.3541 19.1268L60.938 16.7947L60.4011 17.2648ZM76.0671 8.2375C75.0222 7.32395 73.6911 6.78699 72.2933 6.7152C70.8954 6.64339 69.5144 7.04104 68.378 7.84255V0H64.9839V21.346H68.378V13.5787C68.378 10.2687 71.1392 10.0054 71.9828 10.0054C74.0921 10.0054 74.3989 11.9425 74.3989 13.1085V21.3648H77.7928V13.1085C77.8952 11.3252 77.2749 9.57428 76.0671 8.2375ZM15.2441 16.2305C14.5838 16.8958 13.7934 17.4236 12.9204 17.7822C12.0473 18.1409 11.1093 18.3232 10.1627 18.3181C6.23186 18.3181 3.37479 15.2902 3.37479 11.1338C3.37479 6.95861 6.23186 3.93067 10.1627 3.93067C12.0611 3.93067 13.8635 4.66415 15.2249 5.99945L15.7618 6.52605L18.1203 4.21278L17.6026 3.68618C16.6297 2.71562 15.4684 1.946 14.1873 1.42273C12.9062 0.899448 11.5312 0.633117 10.1436 0.63944C4.37189 0.63944 0 5.15313 0 11.1526C0 17.1144 4.37189 21.6281 10.1436 21.6281C13.0006 21.6281 15.6468 20.5373 17.6026 18.5626L18.1203 18.0359L15.781 15.6851L15.2441 16.2305Z" fill="#3B5068"/>
</g>
</g>
<defs>
<clipPath id="clip0_593_718">
<rect width="77.9923" height="22.2835" fill="white"/>
</clipPath>
</defs>
</svg>
